<svg width="29" height="28" viewBox="0 0 29 28" fill="none" xmlns="http://www.w3.org/2000/svg">
<path d="M19.9836 22.1437H9.0169C8.5269 22.1437 7.97857 21.7587 7.81523 21.2921L2.98523 7.78206C2.2969 5.84539 3.1019 5.25039 4.75857 6.44039L9.30857 9.69539C10.0669 10.2204 10.9302 9.95206 11.2569 9.10039L13.3102 3.62872C13.9636 1.87872 15.0486 1.87872 15.7019 3.62872L17.7552 9.10039C18.0819 9.95206 18.9452 10.2204 19.6919 9.69539L23.9619 6.65039C25.7819 5.34372 26.6569 6.00872 25.9102 8.12039L21.1969 21.3154C21.0219 21.7587 20.4736 22.1437 19.9836 22.1437Z" stroke="#039855" stroke-width="1.5" stroke-linecap="round" stroke-linejoin="round"/>
<path d="M8.08325 25.6667H20.9166" stroke="#039855" stroke-width="1.5" stroke-linecap="round" stroke-linejoin="round"/>
<path d="M11.5833 16.3333H17.4166" stroke="#039855" stroke-width="1.5" stroke-linecap="round" stroke-linejoin="round"/>
</svg>
