<svg width="28" height="28" viewBox="0 0 28 28" fill="none" xmlns="http://www.w3.org/2000/svg">
<path d="M21.1631 25.2231C20.1364 25.5264 18.9231 25.6664 17.4998 25.6664H10.4998C9.07642 25.6664 7.86309 25.5264 6.83643 25.2231C7.09309 22.1897 10.2081 19.798 13.9998 19.798C17.7914 19.798 20.9064 22.1897 21.1631 25.2231Z" stroke="#0EA5E9" stroke-width="1.5" stroke-linecap="round" stroke-linejoin="round"/>
<path d="M17.4999 2.33331H10.4999C4.66659 2.33331 2.33325 4.66665 2.33325 10.5V17.5C2.33325 21.91 3.66325 24.325 6.83659 25.2233C7.09325 22.19 10.2083 19.7983 13.9999 19.7983C17.7916 19.7983 20.9066 22.19 21.1633 25.2233C24.3366 24.325 25.6666 21.91 25.6666 17.5V10.5C25.6666 4.66665 23.3333 2.33331 17.4999 2.33331ZM13.9999 16.5316C11.6899 16.5316 9.82325 14.6533 9.82325 12.3433C9.82325 10.0333 11.6899 8.16665 13.9999 8.16665C16.3099 8.16665 18.1766 10.0333 18.1766 12.3433C18.1766 14.6533 16.3099 16.5316 13.9999 16.5316Z" stroke="#0EA5E9" stroke-width="1.5" stroke-linecap="round" stroke-linejoin="round"/>
<path d="M18.1766 12.3434C18.1766 14.6534 16.3099 16.5317 13.9999 16.5317C11.6899 16.5317 9.82324 14.6534 9.82324 12.3434C9.82324 10.0334 11.6899 8.16669 13.9999 8.16669C16.3099 8.16669 18.1766 10.0334 18.1766 12.3434Z" stroke="#0EA5E9" stroke-width="1.5" stroke-linecap="round" stroke-linejoin="round"/>
</svg>
