<svg width="28" height="28" viewBox="0 0 28 28" fill="none" xmlns="http://www.w3.org/2000/svg">
<path d="M11.0833 16.0417C11.0833 17.1734 11.9583 18.0834 13.0316 18.0834H15.2249C16.1582 18.0834 16.9166 17.29 16.9166 16.2984C16.9166 15.2367 16.4499 14.8517 15.7616 14.6067L12.2499 13.3817C11.5616 13.1367 11.0949 12.7634 11.0949 11.69C11.0949 10.71 11.8532 9.90503 12.7866 9.90503H14.9799C16.0532 9.90503 16.9283 10.815 16.9283 11.9467" stroke="#3673D5" stroke-width="1.5" stroke-linecap="round" stroke-linejoin="round"/>
<path d="M14 8.75V19.25" stroke="#3673D5" stroke-width="1.5" stroke-linecap="round" stroke-linejoin="round"/>
<path d="M25.6666 14C25.6666 20.44 20.4399 25.6666 13.9999 25.6666C7.55992 25.6666 2.33325 20.44 2.33325 14C2.33325 7.55998 7.55992 2.33331 13.9999 2.33331" stroke="#3673D5" stroke-width="1.5" stroke-linecap="round" stroke-linejoin="round"/>
<path d="M19.8333 3.5V8.16667H24.4999" stroke="#3673D5" stroke-width="1.5" stroke-linecap="round" stroke-linejoin="round"/>
<path d="M25.6666 2.33331L19.8333 8.16665" stroke="#3673D5" stroke-width="1.5" stroke-linecap="round" stroke-linejoin="round"/>
</svg>
