<svg width="20" height="20" viewBox="0 0 20 20" fill="none" xmlns="http://www.w3.org/2000/svg">
<path d="M16.0831 6.59956V10.8912C16.0831 13.4579 14.6165 14.5579 12.4165 14.5579H5.09147C4.71647 14.5579 4.35813 14.5246 4.0248 14.4496C3.81647 14.4163 3.61647 14.3579 3.43314 14.2913C2.18314 13.8246 1.4248 12.7412 1.4248 10.8912V6.59956C1.4248 4.03289 2.89147 2.93292 5.09147 2.93292H12.4165C14.2831 2.93292 15.6248 3.72458 15.9831 5.53292C16.0415 5.86625 16.0831 6.20789 16.0831 6.59956Z" stroke="black" stroke-width="1.5" stroke-miterlimit="10" stroke-linecap="round" stroke-linejoin="round"/>
<path d="M18.5837 9.09966V13.3913C18.5837 15.958 17.1171 17.058 14.9171 17.058H7.59206C6.97539 17.058 6.41706 16.9747 5.93373 16.7914C4.94206 16.4247 4.26706 15.6664 4.02539 14.4497C4.35872 14.5247 4.71706 14.558 5.09206 14.558H12.4171C14.6171 14.558 16.0837 13.458 16.0837 10.8913V6.59966C16.0837 6.20799 16.0504 5.85802 15.9837 5.53302C17.5671 5.86635 18.5837 6.98299 18.5837 9.09966Z" stroke="black" stroke-width="1.5" stroke-miterlimit="10" stroke-linecap="round" stroke-linejoin="round"/>
<path d="M8.74884 10.9495C9.96387 10.9495 10.9489 9.96448 10.9489 8.74945C10.9489 7.53442 9.96387 6.54944 8.74884 6.54944C7.53381 6.54944 6.54883 7.53442 6.54883 8.74945C6.54883 9.96448 7.53381 10.9495 8.74884 10.9495Z" stroke="black" stroke-width="1.5" stroke-miterlimit="10" stroke-linecap="round" stroke-linejoin="round"/>
<path d="M3.9834 6.9165V10.5832" stroke="#22262E" stroke-width="1.5" stroke-miterlimit="10" stroke-linecap="round" stroke-linejoin="round"/>
<path d="M13.5176 6.9165V10.5832" stroke="#22262E" stroke-width="1.5" stroke-miterlimit="10" stroke-linecap="round" stroke-linejoin="round"/>
</svg>
