<svg width="20" height="20" viewBox="0 0 20 20" fill="none" xmlns="http://www.w3.org/2000/svg">
<path d="M18.3337 6.66669V10.8334C18.3337 14.1667 16.667 15.8334 13.3337 15.8334H12.917C12.6587 15.8334 12.4087 15.9584 12.2503 16.1667L11.0003 17.8334C10.4503 18.5667 9.55033 18.5667 9.00033 17.8334L7.75033 16.1667C7.61699 15.9834 7.30866 15.8334 7.08366 15.8334H6.66699C3.33366 15.8334 1.66699 15 1.66699 10.8334V6.66669C1.66699 3.33335 3.33366 1.66669 6.66699 1.66669H10.0003" stroke="black" stroke-width="1.5" stroke-miterlimit="10" stroke-linecap="round" stroke-linejoin="round"/>
<path d="M12.6671 3.84966C12.3921 3.02466 12.7171 2.00799 13.6171 1.72466C14.0838 1.58299 14.6671 1.69966 15.0004 2.14133C15.3171 1.68299 15.9171 1.58299 16.3838 1.72466C17.2838 1.99966 17.6088 3.02466 17.3338 3.84966C16.9088 5.15799 15.4171 5.83299 15.0004 5.83299C14.5838 5.83299 13.1088 5.16633 12.6671 3.84966Z" stroke="black" stroke-width="1.5" stroke-linecap="round" stroke-linejoin="round"/>
<path d="M13.3301 9.16667H13.3375" stroke="black" stroke-width="1.5" stroke-linecap="round" stroke-linejoin="round"/>
<path d="M9.99607 9.16667H10.0036" stroke="#22262E" stroke-width="2" stroke-linecap="round" stroke-linejoin="round"/>
<path d="M6.66209 9.16667H6.66957" stroke="#22262E" stroke-width="2" stroke-linecap="round" stroke-linejoin="round"/>
</svg>
