<svg width="20" height="20" viewBox="0 0 20 20" fill="none" xmlns="http://www.w3.org/2000/svg">
<path d="M10 12.5C11.3807 12.5 12.5 11.3807 12.5 10C12.5 8.61929 11.3807 7.5 10 7.5C8.61929 7.5 7.5 8.61929 7.5 10C7.5 11.3807 8.61929 12.5 10 12.5Z" stroke="black" stroke-width="1.5" stroke-miterlimit="10" stroke-linecap="round" stroke-linejoin="round"/>
<path d="M1.66699 10.7337V9.267C1.66699 8.40033 2.37533 7.68367 3.25033 7.68367C4.75866 7.68367 5.37533 6.617 4.61699 5.30867C4.18366 4.55867 4.44199 3.58367 5.20033 3.15033L6.64199 2.32533C7.30033 1.93367 8.15033 2.167 8.54199 2.82533L8.63366 2.98367C9.38366 4.292 10.617 4.292 11.3753 2.98367L11.467 2.82533C11.8587 2.167 12.7087 1.93367 13.367 2.32533L14.8087 3.15033C15.567 3.58367 15.8253 4.55867 15.392 5.30867C14.6337 6.617 15.2503 7.68367 16.7587 7.68367C17.6253 7.68367 18.342 8.392 18.342 9.267V10.7337C18.342 11.6003 17.6337 12.317 16.7587 12.317C15.2503 12.317 14.6337 13.3837 15.392 14.692C15.8253 15.4503 15.567 16.417 14.8087 16.8503L13.367 17.6753C12.7087 18.067 11.8587 17.8337 11.467 17.1753L11.3753 17.017C10.6253 15.7087 9.39199 15.7087 8.63366 17.017L8.54199 17.1753C8.15033 17.8337 7.30033 18.067 6.64199 17.6753L5.20033 16.8503C4.44199 16.417 4.18366 15.442 4.61699 14.692C5.37533 13.3837 4.75866 12.317 3.25033 12.317C2.37533 12.317 1.66699 11.6003 1.66699 10.7337Z" stroke="#22262E" stroke-width="1.5" stroke-miterlimit="10" stroke-linecap="round" stroke-linejoin="round"/>
</svg>
