<svg width="20" height="20" viewBox="0 0 20 20" fill="none" xmlns="http://www.w3.org/2000/svg">
<path d="M15.1161 18.0164C14.3828 18.2331 13.5161 18.3331 12.4995 18.3331H7.49948C6.48281 18.3331 5.61615 18.2331 4.88281 18.0164C5.06615 15.8498 7.29115 14.1414 9.99948 14.1414C12.7078 14.1414 14.9328 15.8498 15.1161 18.0164Z" stroke="black" stroke-width="1.5" stroke-linecap="round" stroke-linejoin="round"/>
<path d="M12.5003 1.66669H7.50033C3.33366 1.66669 1.66699 3.33335 1.66699 7.50002V12.5C1.66699 15.65 2.61699 17.375 4.88366 18.0167C5.06699 15.85 7.29199 14.1417 10.0003 14.1417C12.7087 14.1417 14.9337 15.85 15.117 18.0167C17.3837 17.375 18.3337 15.65 18.3337 12.5V7.50002C18.3337 3.33335 16.667 1.66669 12.5003 1.66669ZM10.0003 11.8083C8.35033 11.8083 7.01699 10.4667 7.01699 8.8167C7.01699 7.1667 8.35033 5.83335 10.0003 5.83335C11.6503 5.83335 12.9837 7.1667 12.9837 8.8167C12.9837 10.4667 11.6503 11.8083 10.0003 11.8083Z" stroke="black" stroke-width="1.5" stroke-linecap="round" stroke-linejoin="round"/>
<path d="M12.9833 8.81666C12.9833 10.4667 11.6499 11.8083 9.99994 11.8083C8.34994 11.8083 7.0166 10.4667 7.0166 8.81666C7.0166 7.16666 8.34994 5.83331 9.99994 5.83331C11.6499 5.83331 12.9833 7.16666 12.9833 8.81666Z" stroke="#22262E" stroke-width="1.5" stroke-linecap="round" stroke-linejoin="round"/>
</svg>
