<svg width="28" height="28" viewBox="0 0 28 28" fill="none" xmlns="http://www.w3.org/2000/svg">
<path d="M10.6865 12.6816C10.5698 12.67 10.4298 12.67 10.3015 12.6816C7.52482 12.5883 5.31982 10.3133 5.31982 7.51331C5.31982 4.65498 7.62982 2.33331 10.4998 2.33331C13.3582 2.33331 15.6798 4.65498 15.6798 7.51331C15.6682 10.3133 13.4632 12.5883 10.6865 12.6816Z" stroke="#3673D5" stroke-width="1.5" stroke-linecap="round" stroke-linejoin="round"/>
<path d="M19.1448 4.66669C21.4082 4.66669 23.2282 6.49835 23.2282 8.75002C23.2282 10.955 21.4782 12.7517 19.2965 12.8334C19.2032 12.8217 19.0982 12.8217 18.9932 12.8334" stroke="#3673D5" stroke-width="1.5" stroke-linecap="round" stroke-linejoin="round"/>
<path d="M4.85334 16.9867C2.03001 18.8767 2.03001 21.9567 4.85334 23.835C8.06167 25.9817 13.3233 25.9817 16.5317 23.835C19.355 21.945 19.355 18.865 16.5317 16.9867C13.335 14.8517 8.07334 14.8517 4.85334 16.9867Z" stroke="#3673D5" stroke-width="1.5" stroke-linecap="round" stroke-linejoin="round"/>
<path d="M21.3965 23.3333C22.2365 23.1583 23.0298 22.82 23.6831 22.3183C25.5031 20.9533 25.5031 18.7016 23.6831 17.3366C23.0415 16.8466 22.2598 16.52 21.4315 16.3333" stroke="#3673D5" stroke-width="1.5" stroke-linecap="round" stroke-linejoin="round"/>
</svg>
