<svg width="21" height="20" viewBox="0 0 21 20" fill="none" xmlns="http://www.w3.org/2000/svg">
<path d="M4.66667 8.33331C3.75 8.33331 3 9.08331 3 9.99998C3 10.9166 3.75 11.6666 4.66667 11.6666C5.58333 11.6666 6.33333 10.9166 6.33333 9.99998C6.33333 9.08331 5.58333 8.33331 4.66667 8.33331Z" stroke="#22262E" stroke-width="1.5"/>
<path d="M16.3332 8.33331C15.4165 8.33331 14.6665 9.08331 14.6665 9.99998C14.6665 10.9166 15.4165 11.6666 16.3332 11.6666C17.2498 11.6666 17.9998 10.9166 17.9998 9.99998C17.9998 9.08331 17.2498 8.33331 16.3332 8.33331Z" stroke="#22262E" stroke-width="1.5"/>
<path d="M10.5002 8.33331C9.5835 8.33331 8.8335 9.08331 8.8335 9.99998C8.8335 10.9166 9.5835 11.6666 10.5002 11.6666C11.4168 11.6666 12.1668 10.9166 12.1668 9.99998C12.1668 9.08331 11.4168 8.33331 10.5002 8.33331Z" stroke="#22262E" stroke-width="1.5"/>
</svg>
