<svg width="20" height="20" viewBox="0 0 20 20" fill="none" xmlns="http://www.w3.org/2000/svg">
<path d="M13.9168 15.817H6.0835C5.7335 15.817 5.34183 15.542 5.22517 15.2086L1.77517 5.55865C1.2835 4.17531 1.8585 3.75031 3.04183 4.60031L6.29183 6.92531C6.8335 7.30031 7.45017 7.10865 7.6835 6.50031L9.15017 2.59198C9.61683 1.34198 10.3918 1.34198 10.8585 2.59198L12.3252 6.50031C12.5585 7.10865 13.1752 7.30031 13.7085 6.92531L16.7585 4.75031C18.0585 3.81698 18.6835 4.29198 18.1502 5.80031L14.7835 15.2253C14.6585 15.542 14.2668 15.817 13.9168 15.817Z" stroke="#FB6E0A" stroke-width="1.5" stroke-linecap="round" stroke-linejoin="round"/>
<path d="M5.41675 18.3333H14.5834" stroke="#FB6E0A" stroke-width="1.5" stroke-linecap="round" stroke-linejoin="round"/>
<path d="M7.91675 11.6667H12.0834" stroke="#FB6E0A" stroke-width="1.5" stroke-linecap="round" stroke-linejoin="round"/>
</svg>
