<svg width="29" height="28" viewBox="0 0 29 28" fill="none" xmlns="http://www.w3.org/2000/svg">
<path d="M23.67 9.43787C23.67 9.92787 23.635 10.4062 23.5767 10.8612C23.04 10.6279 22.4567 10.4995 21.8384 10.4995C20.4151 10.4995 19.155 11.1879 18.3734 12.2379C17.58 11.1879 16.32 10.4995 14.8967 10.4995C12.505 10.4995 10.5684 12.4479 10.5684 14.8629C10.5684 17.9895 12.225 20.3812 14.0684 22.0029C14.01 22.0379 13.9517 22.0496 13.8934 22.0729C13.5434 22.2012 12.96 22.2012 12.61 22.0729C9.58838 21.0346 2.83337 16.7412 2.83337 9.43787C2.83337 6.21787 5.42336 3.61621 8.62003 3.61621C10.5217 3.61621 12.2017 4.5262 13.2517 5.93787C14.3134 4.5262 15.9934 3.61621 17.8834 3.61621C21.08 3.61621 23.67 6.21787 23.67 9.43787Z" stroke="#F03D3D" stroke-width="1.5" stroke-linecap="round" stroke-linejoin="round"/>
<path d="M26.1666 14.8633C26.1666 20.3233 21.1149 23.5433 18.8516 24.3133C18.5832 24.4067 18.1516 24.4067 17.8832 24.3133C16.9149 23.9867 15.4332 23.205 14.0682 22.0033C12.2249 20.3816 10.5682 17.99 10.5682 14.8633C10.5682 12.4483 12.5049 10.5 14.8966 10.5C16.3199 10.5 17.5799 11.1883 18.3732 12.2383C19.1549 11.1883 20.4149 10.5 21.8382 10.5C22.4566 10.5 23.0399 10.6283 23.5766 10.8617C25.1049 11.5383 26.1666 13.0667 26.1666 14.8633Z" stroke="#F03D3D" stroke-width="1.5" stroke-linecap="round" stroke-linejoin="round"/>
</svg>
