<svg width="20" height="20" viewBox="0 0 20 20" fill="none" xmlns="http://www.w3.org/2000/svg">
<path d="M7.50008 18.3334H12.5001C16.6667 18.3334 18.3334 16.6667 18.3334 12.5V7.50002C18.3334 3.33335 16.6667 1.66669 12.5001 1.66669H7.50008C3.33341 1.66669 1.66675 3.33335 1.66675 7.50002V12.5C1.66675 16.6667 3.33341 18.3334 7.50008 18.3334Z" stroke="#A855F7" stroke-width="1.5" stroke-linecap="round" stroke-linejoin="round"/>
<path d="M5.83325 7.29169C6.66659 6.45835 8.02492 6.45835 8.86659 7.29169" stroke="#A855F7" stroke-width="1.5" stroke-miterlimit="10" stroke-linecap="round" stroke-linejoin="round"/>
<path d="M11.1333 7.29169C11.9666 6.45835 13.325 6.45835 14.1666 7.29169" stroke="#A855F7" stroke-width="1.5" stroke-miterlimit="10" stroke-linecap="round" stroke-linejoin="round"/>
<path d="M7 14.75H13C13.4167 14.75 13.75 14.4167 13.75 14C13.75 11.925 12.075 10.25 10 10.25C7.925 10.25 6.25 11.925 6.25 14C6.25 14.4167 6.58333 14.75 7 14.75Z" stroke="#A855F7" stroke-width="1.5" stroke-miterlimit="10" stroke-linecap="round" stroke-linejoin="round"/>
</svg>
