<svg width="28" height="28" viewBox="0 0 28 28" fill="none" xmlns="http://www.w3.org/2000/svg">
<path d="M25.6663 8.66799V15.668C25.6663 17.418 25.083 18.8763 24.0563 19.903C23.0413 20.918 21.583 21.5013 19.833 21.5013V23.9863C19.833 24.9197 18.7947 25.4797 18.0247 24.9664L12.833 21.5013H10.3597C10.453 21.1513 10.4997 20.7897 10.4997 20.4163C10.4997 19.2263 10.0447 18.1297 9.29801 17.3014C8.45801 16.3447 7.20967 15.7497 5.83301 15.7497C4.52634 15.7497 3.33635 16.2864 2.48468 17.1614C2.37968 16.6947 2.33301 16.193 2.33301 15.668V8.66799C2.33301 5.16799 4.66634 2.83466 8.16634 2.83466H19.833C23.333 2.83466 25.6663 5.16799 25.6663 8.66799Z" stroke="#039855" stroke-width="1.5" stroke-miterlimit="10" stroke-linecap="round" stroke-linejoin="round"/>
<path d="M10.5003 20.4167C10.5003 21.2917 10.2553 22.12 9.82367 22.82C9.57867 23.24 9.26366 23.6133 8.902 23.9167C8.08533 24.6517 7.01199 25.0833 5.83366 25.0833C4.13033 25.0833 2.64864 24.1733 1.84364 22.82C1.41198 22.12 1.16699 21.2917 1.16699 20.4167C1.16699 18.9467 1.84366 17.6283 2.91699 16.7767C3.72199 16.135 4.73699 15.75 5.83366 15.75C8.41199 15.75 10.5003 17.8383 10.5003 20.4167Z" stroke="#039855" stroke-width="1.5" stroke-miterlimit="10" stroke-linecap="round" stroke-linejoin="round"/>
<path d="M4.01367 20.4161L5.16866 21.5711L7.65367 19.2728" stroke="#039855" stroke-width="1.5" stroke-linecap="round" stroke-linejoin="round"/>
<path d="M9.91699 12.25H18.0837" stroke="#039855" stroke-width="1.5" stroke-miterlimit="10" stroke-linecap="round" stroke-linejoin="round"/>
</svg>
