<svg width="28" height="28" viewBox="0 0 28 28" fill="none" xmlns="http://www.w3.org/2000/svg">
<path d="M22.5168 9.23943V15.2478C22.5168 18.8411 20.4635 20.3811 17.3835 20.3811H7.12844C6.60344 20.3811 6.10178 20.3345 5.63511 20.2295C5.34344 20.1828 5.06345 20.1011 4.80679 20.0078C3.05679 19.3545 1.99512 17.8378 1.99512 15.2478V9.23943C1.99512 5.6461 4.04844 4.10614 7.12844 4.10614H17.3835C19.9968 4.10614 21.8751 5.21447 22.3768 7.74613C22.4585 8.2128 22.5168 8.6911 22.5168 9.23943Z" stroke="#A855F7" stroke-width="1.5" stroke-miterlimit="10" stroke-linecap="round" stroke-linejoin="round"/>
<path d="M26.0179 12.7396V18.7479C26.0179 22.3413 23.9646 23.8812 20.8846 23.8812H10.6296C9.76623 23.8812 8.98457 23.7646 8.30791 23.508C6.91957 22.9946 5.97456 21.933 5.63623 20.2296C6.1029 20.3346 6.60456 20.3812 7.12956 20.3812H17.3846C20.4646 20.3812 22.5179 18.8413 22.5179 15.2479V9.23957C22.5179 8.69124 22.4712 8.20128 22.3779 7.74628C24.5946 8.21294 26.0179 9.77624 26.0179 12.7396Z" stroke="#A855F7" stroke-width="1.5" stroke-miterlimit="10" stroke-linecap="round" stroke-linejoin="round"/>
<path d="M12.2485 15.3293C13.9495 15.3293 15.3285 13.9504 15.3285 12.2493C15.3285 10.5483 13.9495 9.16931 12.2485 9.16931C10.5474 9.16931 9.16846 10.5483 9.16846 12.2493C9.16846 13.9504 10.5474 15.3293 12.2485 15.3293Z" stroke="#A855F7" stroke-width="1.5" stroke-miterlimit="10" stroke-linecap="round" stroke-linejoin="round"/>
<path d="M5.57666 9.68311V14.8165" stroke="#A855F7" stroke-width="1.5" stroke-miterlimit="10" stroke-linecap="round" stroke-linejoin="round"/>
<path d="M18.9253 9.68311V14.8165" stroke="#A855F7" stroke-width="1.5" stroke-miterlimit="10" stroke-linecap="round" stroke-linejoin="round"/>
</svg>
