<svg width="29" height="28" viewBox="0 0 29 28" fill="none" xmlns="http://www.w3.org/2000/svg">
<path d="M11.187 12.6816C11.0703 12.67 10.9303 12.67 10.802 12.6816C8.02531 12.5883 5.82031 10.3133 5.82031 7.51331C5.82031 4.65498 8.13031 2.33331 11.0003 2.33331C13.8586 2.33331 16.1803 4.65498 16.1803 7.51331C16.1686 10.3133 13.9636 12.5883 11.187 12.6816Z" stroke="#A96259" stroke-width="1.5" stroke-linecap="round" stroke-linejoin="round"/>
<path d="M19.6448 4.66669C21.9082 4.66669 23.7282 6.49835 23.7282 8.75002C23.7282 10.955 21.9782 12.7517 19.7965 12.8334C19.7032 12.8217 19.5982 12.8217 19.4932 12.8334" stroke="#A96259" stroke-width="1.5" stroke-linecap="round" stroke-linejoin="round"/>
<path d="M5.35285 16.9867C2.52952 18.8767 2.52952 21.9567 5.35285 23.835C8.56118 25.9817 13.8229 25.9817 17.0312 23.835C19.8545 21.945 19.8545 18.865 17.0312 16.9867C13.8345 14.8517 8.57285 14.8517 5.35285 16.9867Z" stroke="#A96259" stroke-width="1.5" stroke-linecap="round" stroke-linejoin="round"/>
<path d="M21.8965 23.3333C22.7365 23.1583 23.5298 22.82 24.1831 22.3183C26.0031 20.9533 26.0031 18.7016 24.1831 17.3366C23.5415 16.8466 22.7598 16.52 21.9315 16.3333" stroke="#A96259" stroke-width="1.5" stroke-linecap="round" stroke-linejoin="round"/>
</svg>
