<svg width="26" height="26" viewBox="0 0 26 26" fill="none" xmlns="http://www.w3.org/2000/svg">
<path d="M16.1202 13.6965V16.9725C16.1202 19.7085 15.0282 20.8005 12.2922 20.8005H9.02819C6.30419 20.8005 5.2002 19.7085 5.2002 16.9725V13.6965C5.2002 10.9725 6.29219 9.88046 9.02819 9.88046H12.3042C15.0282 9.88046 16.1202 10.9725 16.1202 13.6965Z" stroke="#22262E" stroke-width="1.5" stroke-linecap="round" stroke-linejoin="round"/>
<path d="M20.7999 9.01601V12.292C20.7999 15.028 19.7079 16.12 16.9719 16.12H16.1199V13.696C16.1199 10.972 15.0279 9.88001 12.2919 9.88001H9.87988V9.01601C9.87988 6.28001 10.9719 5.20001 13.7079 5.20001H16.9839C19.7079 5.20001 20.7999 6.29201 20.7999 9.01601Z" stroke="#22262E" stroke-width="1.5" stroke-linecap="round" stroke-linejoin="round"/>
<path d="M25.0001 16.6C25.0001 21.244 21.2441 25 16.6001 25L17.8601 22.9" stroke="#22262E" stroke-width="1.5" stroke-linecap="round" stroke-linejoin="round"/>
<path d="M1 9.4C1 4.756 4.756 1 9.4 1L8.14 3.1" stroke="#22262E" stroke-width="1.5" stroke-linecap="round" stroke-linejoin="round"/>
</svg>
