<svg width="20" height="20" viewBox="0 0 20 20" fill="none" xmlns="http://www.w3.org/2000/svg">
<path d="M11.6665 5.16665V8.33335C9.3415 8.37502 8.37484 9.34169 8.33317 11.6667H5.1665C2.6665 11.6667 1.6665 10.6667 1.6665 8.16673V5.16665C1.6665 2.66665 2.6665 1.66669 5.1665 1.66669H8.1665C10.6665 1.66669 11.6665 2.66665 11.6665 5.16665Z" stroke="#3C93F7" stroke-width="1.5" stroke-linecap="round" stroke-linejoin="round"/>
<path d="M5.80016 4.89165C5.35849 4.59165 4.77516 4.59167 4.3335 4.90834" stroke="#3C93F7" stroke-width="1.5" stroke-miterlimit="10" stroke-linecap="round" stroke-linejoin="round"/>
<path d="M9.13317 4.89165C8.6915 4.59165 8.10817 4.59167 7.6665 4.90834" stroke="#3C93F7" stroke-width="1.5" stroke-miterlimit="10" stroke-linecap="round" stroke-linejoin="round"/>
<path d="M6.79984 9.5164H4.8665C4.6165 9.5164 4.4165 9.31637 4.4165 9.06637C4.4165 7.8247 5.42484 6.81641 6.6665 6.81641C7.19984 6.81641 7.6915 6.99971 8.07484 7.30804" stroke="#3C93F7" stroke-width="1.5" stroke-miterlimit="10" stroke-linecap="round" stroke-linejoin="round"/>
<path d="M18.3335 11.8333V14.8334C18.3335 17.3334 17.3335 18.3333 14.8335 18.3333H11.8335C9.3335 18.3333 8.3335 17.3334 8.3335 14.8334V11.6666C8.37516 9.34165 9.34183 8.37498 11.6668 8.33331H14.8335C17.3335 8.33331 18.3335 9.33327 18.3335 11.8333Z" stroke="#3C93F7" stroke-width="1.5" stroke-linecap="round" stroke-linejoin="round"/>
<path d="M12.4667 11.3497C12.025 11.6497 11.4417 11.6497 11 11.333" stroke="#3C93F7" stroke-width="1.5" stroke-miterlimit="10" stroke-linecap="round" stroke-linejoin="round"/>
<path d="M15.8002 11.3497C15.3585 11.6497 14.7752 11.6497 14.3335 11.333" stroke="#3C93F7" stroke-width="1.5" stroke-miterlimit="10" stroke-linecap="round" stroke-linejoin="round"/>
<path d="M11.533 13.4831H15.133C15.383 13.4831 15.583 13.683 15.583 13.933C15.583 15.1747 14.5747 16.1831 13.333 16.1831C12.0913 16.1831 11.083 15.1747 11.083 13.933C11.083 13.683 11.283 13.4831 11.533 13.4831Z" stroke="#3C93F7" stroke-width="1.5" stroke-miterlimit="10" stroke-linecap="round" stroke-linejoin="round"/>
</svg>
